<?xml version="1.0" encoding="UTF-8" standalone="no"?><svg xmlns="http://www.w3.org/2000/svg" xmlns:xlink="http://www.w3.org/1999/xlink" contentStyleType="text/css" height="1174px" preserveAspectRatio="none" style="width:645px;height:1174px;background:#FFFFFF;" version="1.1" viewBox="0 0 645 1174" width="645px" zoomAndPan="magnify"><defs/><g><!--MD5=[e59cf999063292dce8d6ea34dd10a338]
class user--><g id="elem_user"><rect codeLine="5" fill="#F1F1F1" height="64.2969" id="user" rx="2.5" ry="2.5" style="stroke:#181818;stroke-width:0.5;" width="63" x="370" y="7"/><ellipse cx="385" cy="23" fill="#ADD1B2" rx="11" ry="11" style="stroke:#181818;stroke-width:1.0;"/><path d="M387.9688,28.6406 Q387.3906,28.9375 386.75,29.0781 Q386.1094,29.2344 385.4063,29.2344 Q382.9063,29.2344 381.5781,27.5938 Q380.2656,25.9375 380.2656,22.8125 Q380.2656,19.6875 381.5781,18.0313 Q382.9063,16.375 385.4063,16.375 Q386.1094,16.375 386.75,16.5313 Q387.4063,16.6875 387.9688,16.9844 L387.9688,19.7031 Q387.3438,19.125 386.75,18.8594 Q386.1563,18.5781 385.5313,18.5781 Q384.1875,18.5781 383.5,19.6563 Q382.8125,20.7188 382.8125,22.8125 Q382.8125,24.9063 383.5,25.9844 Q384.1875,27.0469 385.5313,27.0469 Q386.1563,27.0469 386.75,26.7813 Q387.3438,26.5 387.9688,25.9219 L387.9688,28.6406 Z " fill="#000000"/><text fill="#000000" font-family="sans-serif" font-size="14" lengthAdjust="spacing" textLength="31" x="399" y="27.8467">user</text><line style="stroke:#181818;stroke-width:0.5;" x1="371" x2="432" y1="39" y2="39"/><text fill="#000000" font-family="sans-serif" font-size="14" lengthAdjust="spacing" textLength="39" x="376" y="55.9951">name</text><line style="stroke:#181818;stroke-width:0.5;" x1="371" x2="432" y1="63.2969" y2="63.2969"/></g><!--MD5=[be1ea03a64e6811791adf1e6d85b6a55]
class owner--><g id="elem_owner"><rect codeLine="8" fill="#F1F1F1" height="113.1875" id="owner" rx="2.5" ry="2.5" style="stroke:#181818;stroke-width:0.5;" width="143" x="237" y="132"/><ellipse cx="282.75" cy="148" fill="#ADD1B2" rx="11" ry="11" style="stroke:#181818;stroke-width:1.0;"/><path d="M285.7188,153.6406 Q285.1406,153.9375 284.5,154.0781 Q283.8594,154.2344 283.1563,154.2344 Q280.6563,154.2344 279.3281,152.5938 Q278.0156,150.9375 278.0156,147.8125 Q278.0156,144.6875 279.3281,143.0313 Q280.6563,141.375 283.1563,141.375 Q283.8594,141.375 284.5,141.5313 Q285.1563,141.6875 285.7188,141.9844 L285.7188,144.7031 Q285.0938,144.125 284.5,143.8594 Q283.9063,143.5781 283.2813,143.5781 Q281.9375,143.5781 281.25,144.6563 Q280.5625,145.7188 280.5625,147.8125 Q280.5625,149.9063 281.25,150.9844 Q281.9375,152.0469 283.2813,152.0469 Q283.9063,152.0469 284.5,151.7813 Q285.0938,151.5 285.7188,150.9219 L285.7188,153.6406 Z " fill="#000000"/><text fill="#000000" font-family="sans-serif" font-size="14" lengthAdjust="spacing" textLength="43" x="303.25" y="152.8467">owner</text><line style="stroke:#181818;stroke-width:0.5;" x1="238" x2="379" y1="164" y2="164"/><text fill="#000000" font-family="sans-serif" font-size="14" lengthAdjust="spacing" textLength="56" x="243" y="180.9951">address</text><line style="stroke:#181818;stroke-width:0.5;" x1="238" x2="379" y1="188.2969" y2="188.2969"/><text fill="#000000" font-family="sans-serif" font-size="14" lengthAdjust="spacing" textLength="103" x="243" y="205.292">submit_repair()</text><text fill="#000000" font-family="sans-serif" font-size="14" lengthAdjust="spacing" textLength="131" x="243" y="221.5889">submit_complaint()</text><text fill="#000000" font-family="sans-serif" font-size="14" lengthAdjust="spacing" textLength="128" x="243" y="237.8857">submit_feedback()</text></g><!--MD5=[0ffcaa26fef63d39e98bb44d353b819c]
class dispatcher--><g id="elem_dispatcher"><rect codeLine="14" fill="#F1F1F1" height="129.4844" id="dispatcher" rx="2.5" ry="2.5" style="stroke:#181818;stroke-width:0.5;" width="147" x="379" y="283.5"/><ellipse cx="412.9" cy="299.5" fill="#ADD1B2" rx="11" ry="11" style="stroke:#181818;stroke-width:1.0;"/><path d="M415.8688,305.1406 Q415.2906,305.4375 414.65,305.5781 Q414.0094,305.7344 413.3063,305.7344 Q410.8063,305.7344 409.4781,304.0938 Q408.1656,302.4375 408.1656,299.3125 Q408.1656,296.1875 409.4781,294.5313 Q410.8063,292.875 413.3063,292.875 Q414.0094,292.875 414.65,293.0313 Q415.3063,293.1875 415.8688,293.4844 L415.8688,296.2031 Q415.2438,295.625 414.65,295.3594 Q414.0563,295.0781 413.4313,295.0781 Q412.0875,295.0781 411.4,296.1563 Q410.7125,297.2188 410.7125,299.3125 Q410.7125,301.4063 411.4,302.4844 Q412.0875,303.5469 413.4313,303.5469 Q414.0563,303.5469 414.65,303.2813 Q415.2438,303 415.8688,302.4219 L415.8688,305.1406 Z " fill="#000000"/><text fill="#000000" font-family="sans-serif" font-size="14" lengthAdjust="spacing" textLength="73" x="431.1" y="304.3467">dispatcher</text><line style="stroke:#181818;stroke-width:0.5;" x1="380" x2="525" y1="315.5" y2="315.5"/><line style="stroke:#181818;stroke-width:0.5;" x1="380" x2="525" y1="323.5" y2="323.5"/><text fill="#000000" font-family="sans-serif" font-size="14" lengthAdjust="spacing" textLength="91" x="385" y="340.4951">input_repair()</text><text fill="#000000" font-family="sans-serif" font-size="14" lengthAdjust="spacing" textLength="115" x="385" y="356.792">dispatch_repair()</text><text fill="#000000" font-family="sans-serif" font-size="14" lengthAdjust="spacing" textLength="83" x="385" y="373.0889">list_repairs()</text><text fill="#000000" font-family="sans-serif" font-size="14" lengthAdjust="spacing" textLength="111" x="385" y="389.3857">list_complaints()</text><text fill="#000000" font-family="sans-serif" font-size="14" lengthAdjust="spacing" textLength="135" x="385" y="405.6826">submit_statement()</text></g><!--MD5=[cd4ff8600afcb093feb7015527b9e884]
class worker--><g id="elem_worker"><rect codeLine="21" fill="#F1F1F1" height="145.7813" id="worker" rx="2.5" ry="2.5" style="stroke:#181818;stroke-width:0.5;" width="159" x="7" y="275"/><ellipse cx="58.75" cy="291" fill="#ADD1B2" rx="11" ry="11" style="stroke:#181818;stroke-width:1.0;"/><path d="M61.7188,296.6406 Q61.1406,296.9375 60.5,297.0781 Q59.8594,297.2344 59.1563,297.2344 Q56.6563,297.2344 55.3281,295.5938 Q54.0156,293.9375 54.0156,290.8125 Q54.0156,287.6875 55.3281,286.0313 Q56.6563,284.375 59.1563,284.375 Q59.8594,284.375 60.5,284.5313 Q61.1563,284.6875 61.7188,284.9844 L61.7188,287.7031 Q61.0938,287.125 60.5,286.8594 Q59.9063,286.5781 59.2813,286.5781 Q57.9375,286.5781 57.25,287.6563 Q56.5625,288.7188 56.5625,290.8125 Q56.5625,292.9063 57.25,293.9844 Q57.9375,295.0469 59.2813,295.0469 Q59.9063,295.0469 60.5,294.7813 Q61.0938,294.5 61.7188,293.9219 L61.7188,296.6406 Z " fill="#000000"/><text fill="#000000" font-family="sans-serif" font-size="14" lengthAdjust="spacing" textLength="47" x="79.25" y="295.8467">worker</text><line style="stroke:#181818;stroke-width:0.5;" x1="8" x2="165" y1="307" y2="307"/><text fill="#000000" font-family="sans-serif" font-size="14" lengthAdjust="spacing" textLength="42" x="13" y="323.9951">is_idle</text><text fill="#000000" font-family="sans-serif" font-size="14" lengthAdjust="spacing" textLength="147" x="13" y="340.292">types : require_type[]</text><line style="stroke:#181818;stroke-width:0.5;" x1="8" x2="165" y1="347.5938" y2="347.5938"/><text fill="#000000" font-family="sans-serif" font-size="14" lengthAdjust="spacing" textLength="112" x="13" y="364.5889">list_dispatches()</text><text fill="#000000" font-family="sans-serif" font-size="14" lengthAdjust="spacing" textLength="101" x="13" y="380.8857">record_repair()</text><text fill="#000000" font-family="sans-serif" font-size="14" lengthAdjust="spacing" textLength="111" x="13" y="397.1826">list_complaints()</text><text fill="#000000" font-family="sans-serif" font-size="14" lengthAdjust="spacing" textLength="135" x="13" y="413.4795">submit_statement()</text></g><!--MD5=[f5e7ee3b479df05c99880ad25cfdce2c]
class manager--><g id="elem_manager"><rect codeLine="29" fill="#F1F1F1" height="64.2969" id="manager" rx="2.5" ry="2.5" style="stroke:#181818;stroke-width:0.5;" width="152" x="486.5" y="156.5"/><ellipse cx="528.05" cy="172.5" fill="#ADD1B2" rx="11" ry="11" style="stroke:#181818;stroke-width:1.0;"/><path d="M531.0188,178.1406 Q530.4406,178.4375 529.8,178.5781 Q529.1594,178.7344 528.4563,178.7344 Q525.9563,178.7344 524.6281,177.0938 Q523.3156,175.4375 523.3156,172.3125 Q523.3156,169.1875 524.6281,167.5313 Q525.9563,165.875 528.4563,165.875 Q529.1594,165.875 529.8,166.0313 Q530.4563,166.1875 531.0188,166.4844 L531.0188,169.2031 Q530.3938,168.625 529.8,168.3594 Q529.2063,168.0781 528.5813,168.0781 Q527.2375,168.0781 526.55,169.1563 Q525.8625,170.2188 525.8625,172.3125 Q525.8625,174.4063 526.55,175.4844 Q527.2375,176.5469 528.5813,176.5469 Q529.2063,176.5469 529.8,176.2813 Q530.3938,176 531.0188,175.4219 L531.0188,178.1406 Z " fill="#000000"/><text fill="#000000" font-family="sans-serif" font-size="14" lengthAdjust="spacing" textLength="61" x="547.95" y="177.3467">manager</text><line style="stroke:#181818;stroke-width:0.5;" x1="487.5" x2="637.5" y1="188.5" y2="188.5"/><line style="stroke:#181818;stroke-width:0.5;" x1="487.5" x2="637.5" y1="196.5" y2="196.5"/><text fill="#000000" font-family="sans-serif" font-size="14" lengthAdjust="spacing" textLength="140" x="492.5" y="213.4951">process_complaint()</text></g><!--MD5=[147f3719d8ebf0394bc6c7e8aeaf29b1]
class repair_type--><g id="elem_repair_type"><rect codeLine="33" fill="#F1F1F1" height="64.2969" id="repair_type" rx="2.5" ry="2.5" style="stroke:#181818;stroke-width:0.5;" width="108" x="468.5" y="7"/><ellipse cx="483.5" cy="23" fill="#EB937F" rx="11" ry="11" style="stroke:#181818;stroke-width:1.0;"/><path d="M487.6094,29 L479.8906,29 L479.8906,16.6094 L487.6094,16.6094 L487.6094,18.7656 L482.3438,18.7656 L482.3438,21.4375 L487.1094,21.4375 L487.1094,23.5938 L482.3438,23.5938 L482.3438,26.8438 L487.6094,26.8438 L487.6094,29 Z " fill="#000000"/><text fill="#000000" font-family="sans-serif" font-size="14" lengthAdjust="spacing" textLength="76" x="497.5" y="27.8467">repair_type</text><line style="stroke:#181818;stroke-width:0.5;" x1="469.5" x2="575.5" y1="39" y2="39"/><text fill="#000000" font-family="sans-serif" font-size="14" lengthAdjust="spacing" textLength="30" x="474.5" y="55.9951">type</text><line style="stroke:#181818;stroke-width:0.5;" x1="469.5" x2="575.5" y1="63.2969" y2="63.2969"/></g><!--MD5=[1c28018839d57543b186865d5bc8181c]
class repair--><g id="elem_repair"><rect codeLine="39" fill="#F1F1F1" height="178.375" id="repair" rx="2.5" ry="2.5" style="stroke:#181818;stroke-width:0.5;" width="158" x="267.5" y="641"/><ellipse cx="322.75" cy="657" fill="#ADD1B2" rx="11" ry="11" style="stroke:#181818;stroke-width:1.0;"/><path d="M325.7188,662.6406 Q325.1406,662.9375 324.5,663.0781 Q323.8594,663.2344 323.1563,663.2344 Q320.6563,663.2344 319.3281,661.5938 Q318.0156,659.9375 318.0156,656.8125 Q318.0156,653.6875 319.3281,652.0313 Q320.6563,650.375 323.1563,650.375 Q323.8594,650.375 324.5,650.5313 Q325.1563,650.6875 325.7188,650.9844 L325.7188,653.7031 Q325.0938,653.125 324.5,652.8594 Q323.9063,652.5781 323.2813,652.5781 Q321.9375,652.5781 321.25,653.6563 Q320.5625,654.7188 320.5625,656.8125 Q320.5625,658.9063 321.25,659.9844 Q321.9375,661.0469 323.2813,661.0469 Q323.9063,661.0469 324.5,660.7813 Q325.0938,660.5 325.7188,659.9219 L325.7188,662.6406 Z " fill="#000000"/><text fill="#000000" font-family="sans-serif" font-size="14" lengthAdjust="spacing" textLength="39" x="343.25" y="661.8467">repair</text><line style="stroke:#181818;stroke-width:0.5;" x1="268.5" x2="424.5" y1="673" y2="673"/><text fill="#000000" font-family="sans-serif" font-size="14" lengthAdjust="spacing" textLength="43" x="273.5" y="689.9951">status</text><text fill="#000000" font-family="sans-serif" font-size="14" lengthAdjust="spacing" textLength="119" x="273.5" y="706.292">type : repair_type</text><text fill="#000000" font-family="sans-serif" font-size="14" lengthAdjust="spacing" textLength="30" x="273.5" y="722.5889">time</text><text fill="#000000" font-family="sans-serif" font-size="14" lengthAdjust="spacing" textLength="54" x="273.5" y="738.8857">content</text><text fill="#000000" font-family="sans-serif" font-size="14" lengthAdjust="spacing" textLength="55" x="273.5" y="755.1826">channel</text><line style="stroke:#181818;stroke-width:0.5;" x1="268.5" x2="424.5" y1="762.4844" y2="762.4844"/><text fill="#000000" font-family="sans-serif" font-size="14" lengthAdjust="spacing" textLength="146" x="273.5" y="779.4795">get_active_dispatch()</text><text fill="#000000" font-family="sans-serif" font-size="14" lengthAdjust="spacing" textLength="113" x="273.5" y="795.7764">get_workhours()</text><text fill="#000000" font-family="sans-serif" font-size="14" lengthAdjust="spacing" textLength="124" x="273.5" y="812.0732">get_related_staff()</text></g><!--MD5=[045dfc027f4ab6c859258cbebeda5541]
class repair_dispatch--><g id="elem_repair_dispatch"><rect codeLine="52" fill="#F1F1F1" height="80.5938" id="repair_dispatch" rx="2.5" ry="2.5" style="stroke:#181818;stroke-width:0.5;" width="137" x="46" y="888"/><ellipse cx="61" cy="904" fill="#ADD1B2" rx="11" ry="11" style="stroke:#181818;stroke-width:1.0;"/><path d="M63.9688,909.6406 Q63.3906,909.9375 62.75,910.0781 Q62.1094,910.2344 61.4063,910.2344 Q58.9063,910.2344 57.5781,908.5938 Q56.2656,906.9375 56.2656,903.8125 Q56.2656,900.6875 57.5781,899.0313 Q58.9063,897.375 61.4063,897.375 Q62.1094,897.375 62.75,897.5313 Q63.4063,897.6875 63.9688,897.9844 L63.9688,900.7031 Q63.3438,900.125 62.75,899.8594 Q62.1563,899.5781 61.5313,899.5781 Q60.1875,899.5781 59.5,900.6563 Q58.8125,901.7188 58.8125,903.8125 Q58.8125,905.9063 59.5,906.9844 Q60.1875,908.0469 61.5313,908.0469 Q62.1563,908.0469 62.75,907.7813 Q63.3438,907.5 63.9688,906.9219 L63.9688,909.6406 Z " fill="#000000"/><text fill="#000000" font-family="sans-serif" font-size="14" lengthAdjust="spacing" textLength="105" x="75" y="908.8467">repair_dispatch</text><line style="stroke:#181818;stroke-width:0.5;" x1="47" x2="182" y1="920" y2="920"/><text fill="#000000" font-family="sans-serif" font-size="14" lengthAdjust="spacing" textLength="43" x="52" y="936.9951">status</text><line style="stroke:#181818;stroke-width:0.5;" x1="47" x2="182" y1="944.2969" y2="944.2969"/><text fill="#000000" font-family="sans-serif" font-size="14" lengthAdjust="spacing" textLength="113" x="52" y="961.292">get_workhours()</text></g><!--MD5=[f1ad1184c480fe7e28f0811666bb7e29]
class repair_record--><g id="elem_repair_record"><rect codeLine="58" fill="#F1F1F1" height="129.4844" id="repair_record" rx="2.5" ry="2.5" style="stroke:#181818;stroke-width:0.5;" width="123" x="53" y="1038"/><ellipse cx="68" cy="1054" fill="#ADD1B2" rx="11" ry="11" style="stroke:#181818;stroke-width:1.0;"/><path d="M70.9688,1059.6406 Q70.3906,1059.9375 69.75,1060.0781 Q69.1094,1060.2344 68.4063,1060.2344 Q65.9063,1060.2344 64.5781,1058.5938 Q63.2656,1056.9375 63.2656,1053.8125 Q63.2656,1050.6875 64.5781,1049.0313 Q65.9063,1047.375 68.4063,1047.375 Q69.1094,1047.375 69.75,1047.5313 Q70.4063,1047.6875 70.9688,1047.9844 L70.9688,1050.7031 Q70.3438,1050.125 69.75,1049.8594 Q69.1563,1049.5781 68.5313,1049.5781 Q67.1875,1049.5781 66.5,1050.6563 Q65.8125,1051.7188 65.8125,1053.8125 Q65.8125,1055.9063 66.5,1056.9844 Q67.1875,1058.0469 68.5313,1058.0469 Q69.1563,1058.0469 69.75,1057.7813 Q70.3438,1057.5 70.9688,1056.9219 L70.9688,1059.6406 Z " fill="#000000"/><text fill="#000000" font-family="sans-serif" font-size="14" lengthAdjust="spacing" textLength="91" x="82" y="1058.8467">repair_record</text><line style="stroke:#181818;stroke-width:0.5;" x1="54" x2="175" y1="1070" y2="1070"/><text fill="#000000" font-family="sans-serif" font-size="14" lengthAdjust="spacing" textLength="30" x="59" y="1086.9951">type</text><text fill="#000000" font-family="sans-serif" font-size="14" lengthAdjust="spacing" textLength="68" x="59" y="1103.292">start_time</text><text fill="#000000" font-family="sans-serif" font-size="14" lengthAdjust="spacing" textLength="64" x="59" y="1119.5889">end_time</text><text fill="#000000" font-family="sans-serif" font-size="14" lengthAdjust="spacing" textLength="85" x="59" y="1135.8857">/work_hours</text><text fill="#000000" font-family="sans-serif" font-size="14" lengthAdjust="spacing" textLength="72" x="59" y="1152.1826">procedure</text><line style="stroke:#181818;stroke-width:0.5;" x1="54" x2="175" y1="1159.4844" y2="1159.4844"/></g><!--MD5=[3df97a7ff943249c628d4e3a5aeebf03]
class complaint--><g id="elem_complaint"><rect codeLine="69" fill="#F1F1F1" height="113.1875" id="complaint" rx="2.5" ry="2.5" style="stroke:#181818;stroke-width:0.5;" width="164" x="112.5" y="451"/><ellipse cx="156.75" cy="467" fill="#ADD1B2" rx="11" ry="11" style="stroke:#181818;stroke-width:1.0;"/><path d="M159.7188,472.6406 Q159.1406,472.9375 158.5,473.0781 Q157.8594,473.2344 157.1563,473.2344 Q154.6563,473.2344 153.3281,471.5938 Q152.0156,469.9375 152.0156,466.8125 Q152.0156,463.6875 153.3281,462.0313 Q154.6563,460.375 157.1563,460.375 Q157.8594,460.375 158.5,460.5313 Q159.1563,460.6875 159.7188,460.9844 L159.7188,463.7031 Q159.0938,463.125 158.5,462.8594 Q157.9063,462.5781 157.2813,462.5781 Q155.9375,462.5781 155.25,463.6563 Q154.5625,464.7188 154.5625,466.8125 Q154.5625,468.9063 155.25,469.9844 Q155.9375,471.0469 157.2813,471.0469 Q157.9063,471.0469 158.5,470.7813 Q159.0938,470.5 159.7188,469.9219 L159.7188,472.6406 Z " fill="#000000"/><text fill="#000000" font-family="sans-serif" font-size="14" lengthAdjust="spacing" textLength="67" x="177.25" y="471.8467">complaint</text><line style="stroke:#181818;stroke-width:0.5;" x1="113.5" x2="275.5" y1="483" y2="483"/><text fill="#000000" font-family="sans-serif" font-size="14" lengthAdjust="spacing" textLength="54" x="118.5" y="499.9951">content</text><text fill="#000000" font-family="sans-serif" font-size="14" lengthAdjust="spacing" textLength="43" x="118.5" y="516.292">status</text><text fill="#000000" font-family="sans-serif" font-size="14" lengthAdjust="spacing" textLength="89" x="118.5" y="532.5889">/related_staff</text><text fill="#000000" font-family="sans-serif" font-size="14" lengthAdjust="spacing" textLength="152" x="118.5" y="548.8857">communication_result</text><line style="stroke:#181818;stroke-width:0.5;" x1="113.5" x2="275.5" y1="556.1875" y2="556.1875"/></g><!--MD5=[cf7eb502f7c2c7f166d87c5a0f6fc40e]
class statement--><g id="elem_statement"><rect codeLine="75" fill="#F1F1F1" height="80.5938" id="statement" rx="2.5" ry="2.5" style="stroke:#181818;stroke-width:0.5;" width="103" x="129" y="689.5"/><ellipse cx="144" cy="705.5" fill="#ADD1B2" rx="11" ry="11" style="stroke:#181818;stroke-width:1.0;"/><path d="M146.9688,711.1406 Q146.3906,711.4375 145.75,711.5781 Q145.1094,711.7344 144.4063,711.7344 Q141.9063,711.7344 140.5781,710.0938 Q139.2656,708.4375 139.2656,705.3125 Q139.2656,702.1875 140.5781,700.5313 Q141.9063,698.875 144.4063,698.875 Q145.1094,698.875 145.75,699.0313 Q146.4063,699.1875 146.9688,699.4844 L146.9688,702.2031 Q146.3438,701.625 145.75,701.3594 Q145.1563,701.0781 144.5313,701.0781 Q143.1875,701.0781 142.5,702.1563 Q141.8125,703.2188 141.8125,705.3125 Q141.8125,707.4063 142.5,708.4844 Q143.1875,709.5469 144.5313,709.5469 Q145.1563,709.5469 145.75,709.2813 Q146.3438,709 146.9688,708.4219 L146.9688,711.1406 Z " fill="#000000"/><text fill="#000000" font-family="sans-serif" font-size="14" lengthAdjust="spacing" textLength="71" x="158" y="710.3467">statement</text><line style="stroke:#181818;stroke-width:0.5;" x1="130" x2="231" y1="721.5" y2="721.5"/><text fill="#000000" font-family="sans-serif" font-size="14" lengthAdjust="spacing" textLength="54" x="135" y="738.4951">content</text><text fill="#000000" font-family="sans-serif" font-size="14" lengthAdjust="spacing" textLength="66" x="135" y="754.792">submitter</text><line style="stroke:#181818;stroke-width:0.5;" x1="130" x2="231" y1="762.0938" y2="762.0938"/></g><!--MD5=[5fc3e486663e239e02c1eb89216be68c]
class feedback--><g id="elem_feedback"><rect codeLine="82" fill="#F1F1F1" height="96.8906" id="feedback" rx="2.5" ry="2.5" style="stroke:#181818;stroke-width:0.5;" width="147" x="273" y="880"/><ellipse cx="310.95" cy="896" fill="#ADD1B2" rx="11" ry="11" style="stroke:#181818;stroke-width:1.0;"/><path d="M313.9188,901.6406 Q313.3406,901.9375 312.7,902.0781 Q312.0594,902.2344 311.3563,902.2344 Q308.8563,902.2344 307.5281,900.5938 Q306.2156,898.9375 306.2156,895.8125 Q306.2156,892.6875 307.5281,891.0313 Q308.8563,889.375 311.3563,889.375 Q312.0594,889.375 312.7,889.5313 Q313.3563,889.6875 313.9188,889.9844 L313.9188,892.7031 Q313.2938,892.125 312.7,891.8594 Q312.1063,891.5781 311.4813,891.5781 Q310.1375,891.5781 309.45,892.6563 Q308.7625,893.7188 308.7625,895.8125 Q308.7625,897.9063 309.45,898.9844 Q310.1375,900.0469 311.4813,900.0469 Q312.1063,900.0469 312.7,899.7813 Q313.2938,899.5 313.9188,898.9219 L313.9188,901.6406 Z " fill="#000000"/><text fill="#000000" font-family="sans-serif" font-size="14" lengthAdjust="spacing" textLength="64" x="330.05" y="900.8467">feedback</text><line style="stroke:#181818;stroke-width:0.5;" x1="274" x2="419" y1="912" y2="912"/><text fill="#000000" font-family="sans-serif" font-size="14" lengthAdjust="spacing" textLength="117" x="279" y="928.9951">response_speed</text><text fill="#000000" font-family="sans-serif" font-size="14" lengthAdjust="spacing" textLength="109" x="279" y="945.292">service_attitude</text><text fill="#000000" font-family="sans-serif" font-size="14" lengthAdjust="spacing" textLength="135" x="279" y="961.5889">satisfaction_degree</text><line style="stroke:#181818;stroke-width:0.5;" x1="274" x2="419" y1="968.8906" y2="968.8906"/></g><!--MD5=[931ec16eb52ce427f6b71ac4b3e311d5]
reverse link user to owner--><g id="link_user_owner"><path codeLine="1" d="M370.9,88.53 C362.17,102.38 352.58,117.59 343.59,131.84 " fill="none" id="user-backto-owner" style="stroke:#181818;stroke-width:1.0;"/><polygon fill="none" points="365.19,84.47,381.78,71.28,377.03,91.93,365.19,84.47" style="stroke:#181818;stroke-width:1.0;"/></g><!--MD5=[6856f4dbfcfe80c4f9e30306bf5cdb4b]
reverse link user to dispatcher--><g id="link_user_dispatcher"><path codeLine="2" d="M409.99,91.1 C418.76,143.87 432.45,226.32 441.92,283.31 " fill="none" id="user-backto-dispatcher" style="stroke:#181818;stroke-width:1.0;"/><polygon fill="none" points="403.04,92,406.67,71.13,416.85,89.71,403.04,92" style="stroke:#181818;stroke-width:1.0;"/></g><!--MD5=[7e2fbdc531813465d0d8ee53815cf3f3]
reverse link user to worker--><g id="link_user_worker"><path codeLine="3" d="M350.7,56.99 C311.46,72.03 257.6,97.04 219.5,132 C175.92,171.99 141.37,229.44 118.42,274.9 " fill="none" id="user-backto-worker" style="stroke:#181818;stroke-width:1.0;"/><polygon fill="none" points="348.54,50.33,369.73,50.04,353.35,63.48,348.54,50.33" style="stroke:#181818;stroke-width:1.0;"/></g><!--MD5=[475dff177f5572b2b27f97ffff9f6d16]
reverse link user to manager--><g id="link_user_manager"><path codeLine="4" d="M448.08,82.67 C473.79,106.23 505.15,134.96 528.53,156.38 " fill="none" id="user-backto-manager" style="stroke:#181818;stroke-width:1.0;"/><polygon fill="none" points="443.33,87.81,433.31,69.14,452.78,77.49,443.33,87.81" style="stroke:#181818;stroke-width:1.0;"/></g><!--MD5=[40f927abfab428fade04d165f0eccbc4]
link owner to repair--><g id="link_owner_repair"><path codeLine="37" d="M320.1,245.44 C321.81,255.26 323.37,265.4 324.5,275 C339.34,401.58 344.21,549.13 345.79,640.82 " fill="none" id="owner-repair" style="stroke:#181818;stroke-width:1.0;"/><text fill="#000000" font-family="sans-serif" font-size="13" lengthAdjust="spacing" textLength="44" x="345.5" y="512.0669">submit</text><text fill="#000000" font-family="sans-serif" font-size="13" lengthAdjust="spacing" textLength="8" x="313.0263" y="265.3572">1</text><text fill="#000000" font-family="sans-serif" font-size="13" lengthAdjust="spacing" textLength="7" x="338.4414" y="629.8706">*</text></g><!--MD5=[8083ee72565719bb0219c27b3180a8b5]
link dispatcher to repair--><g id="link_dispatcher_repair"><path codeLine="38" d="M438.45,412.85 C428.66,455.8 414.82,513.58 400.5,564 C393.38,589.08 384.9,616.05 376.8,640.77 " fill="none" id="dispatcher-repair" style="stroke:#181818;stroke-width:1.0;"/><text fill="#000000" font-family="sans-serif" font-size="13" lengthAdjust="spacing" textLength="54" x="430.5" y="512.0669">dispatch</text><text fill="#000000" font-family="sans-serif" font-size="13" lengthAdjust="spacing" textLength="8" x="428.363" y="433.262">1</text><text fill="#000000" font-family="sans-serif" font-size="13" lengthAdjust="spacing" textLength="7" x="372.0194" y="629.8164">*</text></g><!--MD5=[78e4b80318ffb91bb8c7583760fd73c0]
reverse link repair to repair_dispatch--><g id="link_repair_repair_dispatch"><path codeLine="50" d="M257.57,812.05 C254.86,814.4 252.16,816.72 249.5,819 C222.18,842.34 190.95,867.53 165.41,887.76 " fill="none" id="repair-backto-repair_dispatch" style="stroke:#181818;stroke-width:1.0;"/><polygon fill="#181818" points="267.44,803.43,260.2902,804.3685,258.4066,811.3293,265.5564,810.3908,267.44,803.43" style="stroke:#181818;stroke-width:1.0;"/><text fill="#000000" font-family="sans-serif" font-size="13" lengthAdjust="spacing" textLength="8" x="251.5233" y="806.7693">1</text><text fill="#000000" font-family="sans-serif" font-size="13" lengthAdjust="spacing" textLength="7" x="166.2623" y="876.8818">*</text></g><!--MD5=[4a0db777c44810afeccd7989e3845cbb]
link worker to repair_dispatch--><g id="link_worker_repair_dispatch"><path codeLine="51" d="M88.87,421.17 C90.31,462.91 92.31,516.43 94.5,564 C99.94,681.91 108.08,821.23 112.09,887.98 " fill="none" id="worker-repair_dispatch" style="stroke:#181818;stroke-width:1.0;"/><text fill="#000000" font-family="sans-serif" font-size="13" lengthAdjust="spacing" textLength="50" x="98.5" y="607.0669">process</text><text fill="#000000" font-family="sans-serif" font-size="13" lengthAdjust="spacing" textLength="8" x="80.7146" y="440.9425">1</text><text fill="#000000" font-family="sans-serif" font-size="13" lengthAdjust="spacing" textLength="7" x="104.0742" y="876.8398">*</text></g><!--MD5=[6ced6287981bd9122109550ba874b250]
link repair_dispatch to repair_record--><g id="link_repair_dispatch_repair_record"><path codeLine="57" d="M114.5,969.39 C114.5,989.74 114.5,1014.97 114.5,1037.91 " fill="none" id="repair_dispatch-repair_record" style="stroke:#181818;stroke-width:1.0;"/><text fill="#000000" font-family="sans-serif" font-size="13" lengthAdjust="spacing" textLength="8" x="105.9125" y="988.6038">1</text><text fill="#000000" font-family="sans-serif" font-size="13" lengthAdjust="spacing" textLength="7" x="107.1172" y="1027.0728">*</text></g><!--MD5=[c788c9ac66e20b3a5953f0a897c13f02]
link owner to complaint--><g id="link_owner_complaint"><path codeLine="66" d="M286,245.01 C282.09,254.96 278.12,265.27 274.5,275 C252.37,334.59 228.8,403.53 213.02,450.58 " fill="none" id="owner-complaint" style="stroke:#181818;stroke-width:1.0;"/><text fill="#000000" font-family="sans-serif" font-size="13" lengthAdjust="spacing" textLength="44" x="275.5" y="352.5669">submit</text><text fill="#000000" font-family="sans-serif" font-size="13" lengthAdjust="spacing" textLength="8" x="274.6047" y="265.2747">1</text><text fill="#000000" font-family="sans-serif" font-size="13" lengthAdjust="spacing" textLength="7" x="207.8506" y="439.7924">*</text></g><!--MD5=[f5fd42d203bd0cf42be3bee2224ba9b0]
link complaint to repair--><g id="link_complaint_repair"><path codeLine="67" d="M232.86,564.14 C246.61,584.1 262.57,607.24 278.1,629.77 " fill="none" id="complaint-to-repair" style="stroke:#181818;stroke-width:1.0;"/><polygon fill="#181818" points="285.67,640.76,285.5601,633.5497,278.8621,630.878,278.9721,638.0883,285.67,640.76" style="stroke:#181818;stroke-width:1.0;"/></g><!--MD5=[c04f576b6ed2a22022dc20c0d7ab08a7]
reverse link complaint to statement--><g id="link_complaint_statement"><path codeLine="68" d="M190.13,577.35 C187.79,614.2 184.99,658.26 183.02,689.37 " fill="none" id="complaint-backto-statement" style="stroke:#181818;stroke-width:1.0;"/><polygon fill="#181818" points="190.97,564.14,186.6019,569.8776,190.2182,576.1164,194.5862,570.3788,190.97,564.14" style="stroke:#181818;stroke-width:1.0;"/><text fill="#000000" font-family="sans-serif" font-size="13" lengthAdjust="spacing" textLength="8" x="182.0052" y="584.4213">1</text><text fill="#000000" font-family="sans-serif" font-size="13" lengthAdjust="spacing" textLength="7" x="175.8577" y="678.51">*</text></g><!--MD5=[51342817e553a5cad8455914c64f64e6]
reverse link repair to feedback--><g id="link_repair_feedback"><path codeLine="81" d="M346.5,832.47 C346.5,849.05 346.5,865.5 346.5,879.94 " fill="none" id="repair-backto-feedback" style="stroke:#181818;stroke-width:1.0;"/><polygon fill="#181818" points="346.5,819.19,342.5,825.19,346.5,831.19,350.5,825.19,346.5,819.19" style="stroke:#181818;stroke-width:1.0;"/><text fill="#000000" font-family="sans-serif" font-size="13" lengthAdjust="spacing" textLength="8" x="338.1563" y="839.5558">1</text><text fill="#000000" font-family="sans-serif" font-size="13" lengthAdjust="spacing" textLength="20" x="325.0313" y="868.7909">0,1</text></g><!--MD5=[9ba99c7503808f9802db8ef05de7c519]
@startuml
user <|- - owner
user <|- - dispatcher
user <|- - worker
user <|- - manager
class user {
    {field} name
}
class owner {
    {field} address
    {method} submit_repair()
    {method} submit_complaint()
    {method} submit_feedback()
}
class dispatcher {
    {method} input_repair()
    {method} dispatch_repair()
    {method} list_repairs()
    {method} list_complaints()
    {method} submit_statement()
}
class worker {
    {field} is_idle
    {field} types : require_type[]
    {method} list_dispatches()
    {method} record_repair()
    {method} list_complaints()
    {method} submit_statement()
}
class manager {
    {method} process_complaint()
}

enum repair_type {
    {field} type
}

owner "1" - - "*" repair : submit
dispatcher "1" - - "*" repair : dispatch
class repair {
    {field} status
    {field} type : repair_type
    {field} time
    {field} content
    {field} channel
    {method} get_active_dispatch()
    {method} get_workhours()
    {method} get_related_staff()
}

repair "1" *- - "*" repair_dispatch
worker "1" - - "*" repair_dispatch : process
class repair_dispatch {
    {field} status
    {method} get_workhours()
}

repair_dispatch "1" - - "*" repair_record
class repair_record {
  {field} type
  {field} start_time
  {field} end_time
  {field} /work_hours
  {field} procedure
}

owner "1" - - "*" complaint : submit
complaint - -* repair
complaint "1" *- - "*" statement
class complaint {
  {field} content
  {field} status
  {field} /related_staff
  {field} communication_result
}
class statement {
  {field} content
  {field} submitter
}


repair "1" *- - "0,1" feedback
class feedback {
  {field} response_speed
  {field} service_attitude
  {field} satisfaction_degree
}
@enduml

PlantUML version 1.2022.7(Mon Aug 22 17:01:30 UTC 2022)
(GPL source distribution)
Java Runtime: OpenJDK Runtime Environment
JVM: OpenJDK 64-Bit Server VM
Default Encoding: UTF-8
Language: en
Country: null
--></g></svg>